:FULLY-SPECIFIED
:FORCE-ALL-JOINTS-BE-3DOF
:DEGREES
1
root 0.0917792 17.1113 -36.2281 4.68854 2.37172 2.1196
lfemur -7.00586 -1.73986 -27.8547
ltibia 41.1896 0 0
lfoot -18.4606 0.563554 0
ltoes -11.2184 0 0
rfemur -36.1767 -4.01455 16.7326
rtibia 108.236 0 0
rfoot 12.8687 -5.27186 0
rtoes 8.52629 0 0
lowerback 19.257 -1.22373 -5.06989
upperback 1.70725 -2.88959 -2.17631
thorax -8.80689 -1.22956 1.27549
lowerneck -3.02729 -0.130267 -1.32286
upperneck -12.924 0.233441 4.10486
head -3.67612 0.0262048 1.58301
lclavicle -9.54166e-15 -7.15625e-15 0
lhumerus -10.0203 -20.6355 82.8192
lradius 113.865 0 0
lwrist 27.5011 0 0
lhand -37.1915 8.38258 0
lfingers 7.12502 0 0
lthumb -10.2594 38.1124 0
rclavicle -9.54166e-15 -7.15625e-15 0
rhumerus -54.6221 8.39899 -88.3047
rradius 81.0784 0 0
rwrist -0.792659 0 0
rhand -48.8742 40.2847 0
rfingers 7.12502 0 0
rthumb -21.5082 11.4588 0
2
root 0.102778 17.1157 -35.6909 4.67472 2.21145 2.02021
lfemur -7.29283 -1.55745 -27.565
ltibia 42.159 -0 0
lfoot -18.0044 0.496875 -0.0203423
ltoes -11.1865 0 0
rfemur -35.9102 -3.87331 16.9211
rtibia 107.342 -0 0
rfoot 12.4736 -5.28626 0.00385694
rtoes 8.28941 -0 0
lowerback 19.2462 -1.2189 -4.94726
upperback 1.71291 -2.85145 -2.11732
thorax -8.79522 -1.21491 1.25975
lowerneck -3.00341 -0.0882216 -1.29317
upperneck -12.973 0.280453 3.99716
head -3.68995 0.0512325 1.54153
lclavicle -1.46107e-14 1.03368e-14 0
lhumerus -10.5521 -20.5703 83.0443
lradius 113.734 -0 0
lwrist 27.5891 0 0
lhand -37.2239 8.45925 -0.00157852
lfingers 7.12502 -0 0
lthumb -10.2907 38.1873 -0.00148826
rclavicle -1.46107e-14 1.03368e-14 0
rhumerus -54.3046 8.4572 -88.3171
rradius 81.3511 -0 0
rwrist -0.820489 0 0
rhand -48.8185 40.2562 -0.00104687
rfingers 7.12502 -0 0
rthumb -21.4546 11.4249 -0.00119768
3
root 0.113777 17.1201 -35.1536 4.66122 2.02278 1.90348
lfemur -7.62278 -1.34137 -27.2277
ltibia 43.2927 -0 0
lfoot -17.4728 0.419394 -0.0434294
ltoes -11.1468 0 0
rfemur -35.61 -3.70522 17.1421
rtibia 106.299 -0 0
rfoot 12.0064 -5.30242 0.00830526
rtoes 8.00402 -0 0
lowerback 19.2343 -1.21345 -4.80381
upperback 1.7189 -2.80721 -2.04809
thorax -8.78265 -1.1979 1.24169
lowerneck -2.97362 -0.0386592 -1.25802
upperneck -13.0324 0.335889 3.87094
head -3.70717 0.0807311 1.49291
lclavicle -1.46107e-14 1.03368e-14 0
lhumerus -11.1652 -20.4944 83.3048
lradius 113.585 -0 0
lwrist 27.6911 0 0
lhand -37.2623 8.54924 -0.00336258
lfingers 7.12502 -0 0
lthumb -10.3277 38.2753 -0.00317046
rclavicle -1.46107e-14 1.03368e-14 0
rhumerus -53.937 8.52633 -88.3329
rradius 81.6706 -0 0
rwrist -0.854001 0 0
rhand -48.7555 40.224 -0.00219689
rfingers 7.12502 -0 0
rthumb -21.3941 11.3865 -0.00251332
4
root 0.124776 17.1244 -34.6164 4.64817 1.80738 1.77043
lfemur -7.99268 -1.09274 -26.846
ltibia 44.5809 -0 0
lfoot -16.8703 0.331632 -0.0687755
ltoes -11.0998 0 0
rfemur -35.2777 -3.5124 17.3938
rtibia 105.115 -0 0
rfoot 11.4714 -5.32028 0.0132524
rtoes 7.67314 -0 0
lowerback 19.2213 -1.20738 -4.64075
upperback 1.72524 -2.7572 -1.96924
thorax -8.76921 -1.17866 1.22142
lowerneck -2.93829 0.017963 -1.21774
upperneck -13.1016 0.399179 3.72725
head -3.72756 0.114427 1.43758
lclavicle -1.46107e-14 1.03368e-14 0
lhumerus -11.855 -20.4071 83.5982
lradius 113.418 -0 0
lwrist 27.8062 0 0
lhand -37.3064 8.65178 -0.00531095
lfingers 7.12502 -0 0
lthumb -10.3702 38.3755 -0.00500774
rclavicle -1.46107e-14 1.03368e-14 0
rhumerus -53.522 8.6058 -88.3517
rradius 82.0341 -0 0
rwrist -0.892843 0 0
rhand -48.6857 40.1882 -0.00343135
rfingers 7.12502 -0 0
rthumb -21.327 11.344 -0.00392553
5
root 0.135775 17.1288 -34.0791 4.63568 1.56692 1.62211
lfemur -8.39948 -0.812664 -26.4233
ltibia 46.0143 -0 0
lfoot -16.201 0.234112 -0.09588
ltoes -11.046 0 0
rfemur -34.9145 -3.29702 17.675
rtibia 103.799 -0 0
rfoot 10.8728 -5.33975 0.0186038
rtoes 7.29977 -0 0
lowerback 19.2073 -1.20073 -4.45929
upperback 1.73196 -2.70179 -1.88135
thorax -8.75494 -1.15733 1.19909
lowerneck -2.89779 0.0811873 -1.17264
upperneck -13.18 0.46975 3.56714
head -3.75091 0.152045 1.37593
lclavicle -1.46107e-14 1.03368e-14 0
lhumerus -12.6164 -20.3078 83.9221
lradius 113.235 -0 0
lwrist 27.9336 0 0
lhand -37.3557 8.76608 -0.007381
lfingers 7.12502 -0 0
lthumb -10.4178 38.4872 -0.00695993
rclavicle -1.46107e-14 1.03368e-14 0
rhumerus -53.0625 8.69499 -88.3729
rradius 82.439 -0 0
rwrist -0.936662 0 0
rhand -48.6094 40.1491 -0.00473115
rfingers 7.12502 -0 0
rthumb -21.2536 11.2975 -0.00541244
6
root 0.146774 17.1332 -33.5419 4.62388 1.30308 1.45955
lfemur -8.84014 -0.502243 -25.9631
ltibia 47.5831 -0 0
lfoot -15.4694 0.127362 -0.124235
ltoes -10.9859 0 0
rfemur -34.5219 -3.06126 17.984
rtibia 102.359 -0 0
rfoot 10.2151 -5.36077 0.0242636
rtoes 6.88694 -0 0
lowerback 19.1923 -1.19351 -4.26066
upperback 1.73907 -2.64131 -1.78504
thorax -8.73986 -1.13403 1.17481
lowerneck -2.85249 0.150556 -1.12302
upperneck -13.267 0.547025 3.39167
head -3.77703 0.193312 1.30839
lclavicle -1.46107e-14 1.03368e-14 0
lhumerus -13.4446 -20.1959 84.2739
lradius 113.036 -0 0
lwrist 28.0726 0 0
lhand -37.41 8.89136 -0.00952952
lfingers 7.12502 -0 0
lthumb -10.4702 38.6096 -0.00898628
rclavicle -1.46107e-14 1.03368e-14 0
rhumerus -52.5613 8.79331 -88.3962
rradius 82.8825 -0 0
rwrist -0.985104 0 0
rhand -48.527 40.1069 -0.00607702
rfingers 7.12502 -0 0
rthumb -21.1744 11.2472 -0.00695204
7
root 0.157773 17.1376 -33.0046 4.61289 1.01754 1.28378
lfemur -9.31158 -0.162598 -25.4687
ltibia 49.278 -0 0
lfoot -14.6798 0.0119193 -0.153331
ltoes -10.92 0 0
rfemur -34.1012 -2.80731 18.3194
rtibia 100.804 -0 0
rfoot 9.50246 -5.38327 0.0301363
rtoes 6.43766 -0 0
lowerback 19.1763 -1.18575 -4.04607
upperback 1.7466 -2.57613 -1.6809
thorax -8.724 -1.10889 1.14872
lowerneck -2.80275 0.22561 -1.06919
upperneck -13.3621 0.630427 3.20187
head -3.80569 0.237953 1.23536
lclavicle -1.46107e-14 1.03368e-14 0
lhumerus -14.3346 -20.0708 84.651
lradius 112.823 -0 0
lwrist 28.2224 0 0
lhand -37.4689 9.02683 -0.0117134
lfingers 7.12502 -0 0
lthumb -10.5269 38.7419 -0.0110461
rclavicle -1.46107e-14 1.03368e-14 0
rhumerus -52.0213 8.90014 -88.4211
rradius 83.3619 -0 0
rwrist -1.03782 0 0
rhand -48.4388 40.0617 -0.00744974
rfingers 7.12502 -0 0
rthumb -21.0896 11.1935 -0.00852233
8
root 0.168772 17.1419 -32.4674 4.60284 0.711981 1.09582
lfemur -9.81078 0.205107 -24.9435
ltibia 51.0892 -0 0
lfoot -13.8365 -0.111669 -0.182665
ltoes -10.8488 0 0
rfemur -33.6538 -2.53734 18.6796
rtibia 99.1427 -0 0
rfoot 8.73927 -5.40718 0.036127
rtoes 5.95494 -0 0
lowerback 19.1595 -1.17745 -3.81672
upperback 1.75457 -2.50658 -1.56952
thorax -8.7074 -1.08207 1.12096
lowerneck -2.74896 0.305893 -1.01147
upperneck -13.4645 0.719383 2.99882
head -3.8367 0.285694 1.15726
lclavicle -1.46107e-14 1.03368e-14 0
lhumerus -15.2816 -19.932 85.0508
lradius 112.596 -0 0
lwrist 28.3821 0 0
lhand -37.532 9.17172 -0.0138901
lfingers 7.12502 -0 0
lthumb -10.5878 38.8835 -0.0130996
rclavicle -1.46107e-14 1.03368e-14 0
rhumerus -51.4451 9.01488 -88.447
rradius 83.8744 -0 0
rwrist -1.09445 0 0
rhand -48.3452 40.0138 -0.00883034
rfingers 7.12502 -0 0
rthumb -20.9996 11.1364 -0.0101016
9
root 0.179771 17.1463 -31.9301 4.59382 0.38808 0.896709
lfemur -10.3347 0.599653 -24.3908
ltibia 53.0073 -0 0
lfoot -12.9438 -0.242841 -0.211746
ltoes -10.7729 0 0
rfemur -33.181 -2.25353 19.0633
rtibia 97.3839 -0 0
rfoot 7.92985 -5.43242 0.0421428
rtoes 5.44179 -0 0
lowerback 19.1419 -1.16864 -3.57383
upperback 1.763 -2.43303 -1.45152
thorax -8.69008 -1.05368 1.09164
lowerneck -2.69148 0.390946 -0.950169
upperneck -13.5739 0.813319 2.78355
head -3.86984 0.336261 1.0745
lclavicle -1.46107e-14 1.03368e-14 0
lhumerus -16.2805 -19.779 85.4708
lradius 112.357 -0 0
lwrist 28.5511 0 0
lhand -37.5989 9.32523 -0.0160188
lfingers 7.12502 -0 0
lthumb -10.6523 39.0334 -0.0151078
rclavicle -1.46107e-14 1.03368e-14 0
rhumerus -50.8357 9.1369 -88.4737
rradius 84.4172 -0 0
rwrist -1.15465 0 0
rhand -48.2466 39.9633 -0.0102003
rfingers 7.12502 -0 0
rthumb -20.9048 11.0763 -0.0116687
10
root 0.19077 17.1507 -31.3929 4.58594 0.0475198 0.687452
lfemur -10.8804 1.01975 -23.814
ltibia 55.0226 -0 0
lfoot -12.0061 -0.381022 -0.2401
ltoes -10.6928 0 0
rfemur -32.6843 -1.95803 19.4688
rtibia 95.5362 -0 0
rfoot 7.07851 -5.45891 0.0480933
rtoes 4.90125 -0 0
lowerback 19.1236 -1.15935 -3.31862
upperback 1.77191 -2.35583 -1.32749
thorax -8.67208 -1.02386 1.06089
lowerneck -2.63068 0.480314 -0.885599
upperneck -13.6894 0.911667 2.55712
head -3.90491 0.389381 0.987496
lclavicle -1.46107e-14 1.03368e-14 0
lhumerus -17.3265 -19.6112 85.9083
lradius 112.106 -0 0
lwrist 28.7284 0 0
lhand -37.6693 9.48659 -0.0180603
lfingers 7.12502 -0 0
lthumb -10.7202 39.191 -0.0170341
rclavicle -1.46107e-14 1.03368e-14 0
rhumerus -50.1958 9.26557 -88.5005
rradius 84.9877 -0 0
rwrist -1.21806 0 0
rhand -48.1434 39.9104 -0.0115416
rfingers 7.12502 -0 0
rthumb -20.8055 11.0134 -0.013203
